# xmcd
#
# Track frame offsets: 
#        150
#        22045
#        39860
#        55287
#        74377
#        93645
#        110450
#        128122
#        149185
#        169480
#        191870
#        213682
#
# Disc length: 3079 seconds
#
# Revision: 7
# Processed by: cddbd v1.5.2PL0 Copyright (c) Steve Scherf et al.
# Submitted via: ExactAudioCopy v0.99pb1
#
DISCID=c20c050c
DTITLE=James Taylor - October Road
DYEAR=2002
DGENRE=Rock
TTITLE0=September Grass
TTITLE1=October Road
TTITLE2=On The 4th Of July
TTITLE3=Whenever You're Ready
TTITLE4=Belfast To Boston
TTITLE5=Mean Old Man
TTITLE6=My Traveling Star
TTITLE7=Raised Up Family
TTITLE8=Carry Me On My Way
TTITLE9=Caroline I See You
TTITLE10=Baby Buffalo
TTITLE11=Have Yourself A Merry Little Christmas
EXTD=YEAR: 2002 ID3G: 17
EXTT0=Written by John I. Sheldon.
EXTT1=
EXTT2=
EXTT3=
EXTT4=
EXTT5=
EXTT6=
EXTT7=
EXTT8=
EXTT9=
EXTT10=
EXTT11=Written by (Hugh Martin/Ralph Blane) Albert and Son Pty Ltd..
PLAYORDER=
